PathFileType	4	(X/Y/Z)	C:\Users\Basilio\Documents\Thesis Gigler\squatting_fais\c3dfiles\073\SLS_front_pre1\markers_experimental.trc
DataRate	CameraRate	NumFrames	NumMarkers	Units	OrigDataRate	OrigDataStartFrame	OrigNumFrames
200.000000	200.000000	4	61	mm	200.000000	871	1395
Frame#	Time	FHD			LBHD			RBHD			C7			T10			CLAV			LSHO			LUUPA			LMUPA			LDUPA			LLEP			LMEP			LRAD			LUL			LRFIN			RSHO			RUPA1			RMUPA			RDUPA			RLEP			RMEP			RUL			RUFIN			LASI			RASI			USACR			LSACR			RSACR			LTHI1			LTHI2			LTHI3			LTHI4			LLFC			LMFC			LTIB1			LTIB2			LTIB3			LTIB4			LLMAL			LMMAL			LHEE			LMT1			LMT2			LMT5			RTHI			RTHI2			RTHI3			RTHI4			RLFC			RMFC			RTIB1			RTIB2			RTIB3			RTIB4			RLMAL			RMMAL			RHEE			RMT1			RMT2			RMT5			RRAD			
		X1	Y1	Z1	X2	Y2	Z2	X3	Y3	Z3	X4	Y4	Z4	X5	Y5	Z5	X6	Y6	Z6	X7	Y7	Z7	X8	Y8	Z8	X9	Y9	Z9	X10	Y10	Z10	X11	Y11	Z11	X12	Y12	Z12	X13	Y13	Z13	X14	Y14	Z14	X15	Y15	Z15	X16	Y16	Z16	X17	Y17	Z17	X18	Y18	Z18	X19	Y19	Z19	X20	Y20	Z20	X21	Y21	Z21	X22	Y22	Z22	X23	Y23	Z23	X24	Y24	Z24	X25	Y25	Z25	X26	Y26	Z26	X27	Y27	Z27	X28	Y28	Z28	X29	Y29	Z29	X30	Y30	Z30	X31	Y31	Z31	X32	Y32	Z32	X33	Y33	Z33	X34	Y34	Z34	X35	Y35	Z35	X36	Y36	Z36	X37	Y37	Z37	X38	Y38	Z38	X39	Y39	Z39	X40	Y40	Z40	X41	Y41	Z41	X42	Y42	Z42	X43	Y43	Z43	X44	Y44	Z44	X45	Y45	Z45	X46	Y46	Z46	X47	Y47	Z47	X48	Y48	Z48	X49	Y49	Z49	X50	Y50	Z50	X51	Y51	Z51	X52	Y52	Z52	X53	Y53	Z53	X54	Y54	Z54	X55	Y55	Z55	X56	Y56	Z56	X57	Y57	Z57	X58	Y58	Z58	X59	Y59	Z59	X60	Y60	Z60	X61	Y61	Z61	

872	4.355	-142.710922241211	1567.332885742188	-795.5324707031252	-276.5856933593751	1539.119873046875	-822.6466064453127	-302.0644226074219	1520.720947265625	-689.6499633789064	-328.6455688476563	1435.86376953125	-753.9327392578126	-491.3668518066407	1146.119873046875	-754.6210327148439	-227.1569213867188	1322.760620117188	-753.2893676757814	-244.5768280029297	1382.266235351563	-893.601745605469	-168.8208923339844	1307.819213867188	-989.0207519531252	-128.01904296875	1325.406494140625	-965.2556762695315	-107.1393432617188	1278.027587890625	-997.4948730468752	-3.756095170974732	1250.671875	-999.171813964844	-9.009622573852541	1195.856689453125	-954.9385375976565	255.8061828613282	1270.040161132813	-885.768981933594	260.3788146972657	1269.882568359375	-960.1909790039065	336.4302673339844	1280.9189453125	-875.9954223632815	-234.2008819580079	1377.298095703125	-616.3786621093751	-147.9269256591797	1283.360717773438	-512.5449218750001	-108.7366104125977	1304.07080078125	-531.5296020507814	-85.19396972656251	1255.496826171875	-505.8511657714845	7.07802200317383	1238.194091796875	-507.2923278808595	2.930664539337159	1181.01513671875	-567.1800537109376	269.5734863281251	1277.141723632813	-552.3410034179689	348.2948913574219	1288.599853515625	-633.6517333984376	-373.5446472167969	965.979919433594	-889.1497802734377	-360.7729492187501	951.198181152344	-640.9708862304689	-540.8088378906251	1022.452514648438	-753.1898193359376	-553.6490478515626	994.3377685546877	-782.2834472656252	-553.1622924804689	989.5554809570315	-726.4851684570314	-214.5644989013672	750.7301635742189	-938.2725830078127	-136.5428314208985	728.2847290039064	-912.5012207031252	-117.6415405273438	760.3017578125001	-879.259948730469	-116.0656661987305	673.7658691406251	-904.4121093750002	-73.93401336669923	634.0784301757814	-903.3728027343752	-86.62179565429689	623.0239868164064	-764.5932006835939	81.39562988281251	508.3748168945314	-843.353942871094	64.48970794677736	444.7103271484376	-900.5631103515627	98.91049957275393	461.9615173339845	-875.8270263671877	144.1389923095703	398.6088256835939	-841.7308349609377	168.1199493408203	267.6881103515626	-871.4172973632815	154.9050750732422	288.2851867675782	-786.9708251953127	136.3053131103516	205.0573425292969	-834.4459228515627	315.6955261230469	326.6991577148438	-770.6796875000002	320.5310363769532	330.5360107421876	-809.2233886718752	310.7053833007813	293.8279418945313	-865.485778808594	-354.3064270019532	714.1090087890626	-593.3505249023439	-296.6284790039063	681.5973510742189	-597.0462646484376	-267.4186096191407	698.1654663085939	-600.0449829101564	-284.4544372558594	603.5229492187501	-625.2405395507814	-214.6830444335938	482.0355834960939	-652.9212036132814	-212.2957153320313	488.5091857910157	-781.0015869140627	-216.3121643066407	330.9427795410157	-759.9979248046876	-258.1935119628907	252.2471466064454	-698.8756713867189	-239.3220367431641	248.4533996582032	-743.2099609375001	-274.3609008789063	215.8906402587891	-776.406433105469	-358.5681152343751	102.4091033935547	-729.1860351562501	-348.5809631347657	128.6627349853516	-815.5883789062502	-432.1625976562501	86.06191253662111	-784.4680786132815	-208.4190368652344	53.62694931030275	-788.4333496093752	-210.3498687744141	52.83930587768556	-747.0932617187501	-256.2231750488282	36.03800582885743	-701.5501098632814	259.7583007812501	1266.41162109375	-627.3929443359376	
873	4.36	-143.0047607421875	1568.968627929688	-795.7661132812502	-276.8620605468751	1540.710693359375	-822.7180786132815	-302.1162414550782	1522.463012695313	-689.7321777343751	-328.7990722656251	1437.354125976563	-753.9385375976564	-491.0498352050782	1147.502685546875	-754.5150146484376	-227.2153625488282	1324.683349609375	-753.4024047851564	-244.8048095703126	1383.704711914063	-893.6567382812502	-169.1133270263672	1309.126586914063	-989.126159667969	-128.1720123291016	1326.826904296875	-965.4979248046877	-107.4271087646485	1279.4453125	-997.5498657226565	-3.825384855270387	1252.220458984375	-999.310241699219	-9.230445861816408	1197.384521484375	-955.0294189453127	255.7094421386719	1271.426391601563	-885.8913574218752	260.1477355957032	1271.25830078125	-960.2583007812502	336.2506408691407	1282.429565429688	-876.2023925781252	-234.2542572021485	1378.876098632813	-616.5200805664064	-148.0119018554688	1284.954467773438	-512.6599731445314	-108.7659683227539	1305.639038085938	-531.6810913085939	-85.1781463623047	1257.090209960938	-505.9500122070314	7.015559673309328	1239.671875	-507.317596435547	2.901279211044312	1182.622192382813	-567.1597900390626	269.5165100097657	1278.609497070313	-552.2853393554689	348.2913818359376	1290.012084960938	-633.6444091796876	-373.1561584472657	967.4756469726565	-889.2390136718752	-360.2612915039063	952.420104980469	-640.9700927734376	-540.4753417968751	1023.748352050781	-753.0133056640626	-553.2869262695314	995.8167114257815	-782.1613769531252	-552.7777709960939	990.932800292969	-726.2158203125001	-214.4780578613282	751.6168823242189	-938.1460571289065	-136.6207885742188	729.1007080078126	-912.3379516601565	-117.733268737793	761.0127563476564	-879.106628417969	-116.4384994506836	674.3778076171876	-904.2877197265627	-74.20452880859376	634.7175903320314	-903.2073364257815	-87.08639526367189	623.6450805664064	-764.2994384765626	80.78759765625001	508.5835266113282	-843.1044921875002	63.75199127197267	444.9313964843751	-900.4168701171877	98.16735839843753	462.156951904297	-875.5933227539065	143.2544860839844	398.6898803710939	-841.457702636719	166.7848358154297	267.6769714355469	-871.1011962890627	153.6427612304688	288.2879638671876	-786.7429199218752	134.8970642089844	205.1415710449219	-834.2320556640627	314.5219116210938	326.2930908203126	-770.3703613281252	319.6196594238282	330.2803649902344	-808.7674560546877	309.8226623535157	293.4102783203126	-865.0220947265627	-354.5950622558594	715.1074218750001	-593.3978881835939	-297.0344543457032	682.3704833984376	-596.9190063476564	-267.8104858398438	698.8584594726564	-600.0708007812501	-285.1948852539063	604.3414306640626	-625.3604125976564	-215.6618194580079	482.6057434082032	-652.9249877929689	-213.4554138183594	489.0075683593751	-781.0903320312502	-216.8706665039063	331.3420104980469	-760.0524902343751	-258.6811828613282	252.5785064697266	-698.8917846679689	-239.8132476806641	248.7639770507813	-743.1505737304689	-274.7017822265626	216.1376037597657	-776.5815429687502	-358.6173095703126	102.4638061523438	-729.1763916015626	-348.6287536621094	128.6579742431641	-815.5750122070315	-432.1431579589845	86.06287384033205	-784.450866699219	-208.4370880126954	53.64973449707033	-788.4418945312502	-210.3612365722657	52.85028457641603	-747.0771484375001	-256.1723632812501	36.03121948242188	-701.5712280273439	259.7007141113282	1267.754272460938	-627.5149536132814	
874	4.365	-142.7929077148438	1570.9072265625	-795.920104980469	-277.1085510253907	1542.359497070313	-822.8713378906252	-302.4251403808594	1524.1064453125	-689.7070312500001	-329.0089111328126	1438.997802734375	-754.0598144531251	-490.8349914550782	1148.768432617188	-754.4367065429689	-227.2742156982422	1326.16650390625	-753.4767456054689	-244.9339447021485	1385.347045898438	-893.8377075195315	-169.362777709961	1310.78125	-989.2081298828127	-128.4502105712891	1328.423461914063	-965.584899902344	-107.8747253417969	1280.871948242188	-997.9346313476565	-4.061384677886964	1253.626708984375	-999.4714965820315	-9.386875152587892	1198.835327148438	-955.3215942382815	255.4380493164063	1273.025146484375	-886.1102294921877	259.8183898925782	1272.832397460938	-960.5677490234377	336.0791320800782	1283.8369140625	-876.3392333984377	-234.3336181640626	1380.527221679688	-616.4586181640626	-148.0117340087891	1286.520629882813	-512.6666259765626	-108.8675918579102	1307.286010742188	-531.7240600585939	-85.28265380859376	1258.637451171875	-505.9408569335939	6.963154315948488	1241.368286132813	-507.4095764160157	2.780859708786011	1184.135131835938	-567.4217529296876	269.4461975097657	1280.1357421875	-552.3897705078126	348.2407531738282	1291.5869140625	-633.7500610351564	-372.7345275878907	968.8166503906252	-889.2932739257815	-359.8143920898438	953.6214599609377	-640.8839721679689	-540.2390136718751	1025.148803710938	-752.9182128906251	-552.9957275390626	997.082702636719	-782.005310058594	-552.3895263671876	992.2800903320315	-726.0965576171876	-214.4646148681641	752.6057128906251	-938.0642700195315	-136.7903900146485	729.7186279296876	-912.175964355469	-117.7220916748047	761.6717529296876	-878.948913574219	-116.7626037597657	675.1629638671876	-904.1497192382815	-74.67002105712892	635.2655029296876	-903.0704345703127	-87.5608596801758	624.1577148437501	-764.2453613281251	80.09708404541017	508.827362060547	-842.8491210937502	62.990047454834	445.0283508300782	-900.1513671875002	97.39825439453128	462.2988586425782	-875.440368652344	142.2877807617188	398.6699523925782	-840.9787597656252	165.5174865722657	267.6727905273438	-870.7766113281252	152.468246459961	288.4071655273438	-786.3892822265627	133.5215454101563	205.2446899414063	-833.9151611328127	313.3041381835938	325.9462890625001	-769.7968750000002	318.3471069335938	329.8817749023438	-808.2798461914065	308.6827697753907	293.0863342285157	-864.6607055664065	-354.8662109375001	716.1185302734376	-593.4282226562501	-297.4801330566407	683.2185058593751	-597.1074829101564	-268.1422729492188	699.5899047851564	-600.1033325195314	-285.9515380859376	605.1998901367189	-625.4677124023439	-216.7470855712891	483.1243896484376	-652.8246459960939	-214.5355377197266	489.4618225097657	-781.077575683594	-217.6323699951172	331.6355285644532	-759.9167480468751	-259.1781921386719	252.9117889404297	-698.8610229492189	-240.2999420166016	249.0956573486329	-743.1275024414064	-275.0915832519532	216.3868103027344	-776.581726074219	-358.6741027832032	102.5105972290039	-729.1900024414064	-348.6441650390626	128.6159210205078	-815.602233886719	-432.1616516113282	86.0774383544922	-784.4356079101565	-208.4319610595704	53.6184768676758	-788.4495239257815	-210.3192291259766	52.88182449340822	-747.1588134765626	-256.1791076660157	36.07788467407227	-701.5827026367189	259.5880126953126	1269.405639648438	-627.5175781250001	
875	4.37	-143.4514617919922	1572.531127929688	-796.0455322265627	-277.3617248535157	1543.948852539063	-822.970153808594	-302.5544128417969	1525.719482421875	-689.8666381835939	-329.1769104003907	1440.5166015625	-754.0899658203126	-490.6905212402345	1150.034545898438	-754.3450317382814	-227.4236755371094	1328.018310546875	-753.5847167968751	-245.1228179931641	1386.85888671875	-893.9234619140627	-169.4731140136719	1312.173461914063	-989.2982177734377	-128.5211029052735	1329.893310546875	-965.7688598632815	-108.0110168457032	1282.387084960938	-997.8001098632815	-4.216689586639405	1255.268188476563	-999.5894165039065	-9.580103874206545	1200.4091796875	-955.4363403320315	255.2380523681641	1274.445434570313	-886.2686157226565	259.8066406250001	1274.201171875	-960.7766113281252	335.9584350585938	1285.304077148438	-876.6137695312502	-234.4131011962891	1382.17626953125	-616.5230712890626	-148.0730133056641	1288.084228515625	-512.7877197265626	-108.924301147461	1308.798217773438	-531.7888183593751	-85.28771209716798	1260.218994140625	-506.0242919921876	6.913652896881105	1242.824829101563	-507.3692626953126	2.728402137756348	1185.763427734375	-567.3632812500001	269.4286804199219	1281.644653320313	-552.3761596679689	348.2265625000001	1292.976440429688	-633.7681884765626	-372.5609741210938	970.1613769531252	-889.319763183594	-359.3975219726563	954.888366699219	-640.9544677734376	-539.8262329101564	1026.55029296875	-752.8416748046876	-552.6949462890626	998.545837402344	-781.8362426757815	-551.9107055664064	993.749694824219	-725.9103393554689	-214.4406738281251	753.5716552734376	-937.8640136718752	-136.9131774902344	730.4599609375001	-912.0733032226565	-117.817855834961	762.3454589843751	-878.9234008789065	-116.912467956543	675.9359130859376	-903.963562011719	-75.04915618896486	635.6649169921876	-902.903015136719	-88.00035095214845	624.7756958007814	-764.0989990234376	79.3917922973633	509.0385742187501	-842.5803222656252	62.16517257690431	445.2207946777345	-899.8638305664065	96.62123870849612	462.4413452148439	-875.265319824219	141.3121185302735	398.7625427246095	-840.863708496094	164.5343322753907	267.5987854003907	-870.5603637695315	151.2861785888672	288.4156494140626	-786.153747558594	132.143798828125	205.2994689941407	-833.7420654296877	312.2040100097657	325.6296386718751	-769.542175292969	317.4336547851563	329.5317687988282	-808.0191650390627	307.5325622558594	292.7620849609376	-864.3393554687502	-355.1450805664063	717.2186889648439	-593.4454956054689	-297.9716186523438	684.0575561523439	-596.7946777343751	-268.5435485839844	700.3601684570314	-600.1452026367189	-286.6724243164063	606.0348510742189	-625.4490356445314	-217.8796539306641	483.6275024414064	-652.8970336914064	-215.6153564453126	489.8579101562501	-781.103942871094	-218.4355163574219	331.9952392578126	-759.8599853515626	-259.7070312500001	253.2906951904297	-698.7299194335939	-240.6246337890626	249.6971130371094	-743.3905029296876	-275.1850280761719	216.8589477539063	-776.875427246094	-358.7316589355469	102.5504989624024	-729.1696166992189	-348.8458251953126	128.6600952148438	-815.5447998046877	-432.1510314941407	86.06686401367189	-784.4243774414065	-208.421371459961	53.61931228637697	-788.484558105469	-210.3398437500001	52.89784240722658	-747.0916748046876	-256.1924438476563	36.05741119384766	-701.6086425781251	259.6476440429688	1270.74365234375	-627.6349487304689	
